<?xml version="1.0" standalone="no"?>
<!DOCTYPE svg PUBLIC "-//W3C//DTD SVG 20010904//EN"
 "http://www.w3.org/TR/2001/REC-SVG-20010904/DTD/svg10.dtd">
<svg version="1.0" xmlns="http://www.w3.org/2000/svg"
 width="302.000000pt" height="302.000000pt" viewBox="0 0 302.000000 302.000000"
 preserveAspectRatio="xMidYMid meet">
<metadata>
Created by potrace 1.14, written by Peter Selinger 2001-2017
</metadata>
<g transform="translate(0.000000,302.000000) scale(0.100000,-0.100000)"
fill="#000000" stroke="none">
<path d="M973 2782 c-19 -3 -21 -7 -13 -22 9 -17 37 -18 565 -17 443 0 555 3
555 13 0 7 -6 16 -12 21 -12 7 -1046 12 -1095 5z"/>
<path d="M970 2702 c-15 -5 -12 -89 3 -94 20 -7 1082 -3 1093 4 11 7 12 74 1
84 -7 7 -1077 12 -1097 6z"/>
<path d="M967 2560 c-8 -3 -12 -37 -12 -107 0 -57 2 -103 5 -104 35 -5 183 -3
186 3 4 6 8 161 5 198 -1 12 -18 15 -86 15 -47 0 -91 -2 -98 -5z"/>
<path d="M1888 2559 c-10 -6 -14 -196 -5 -206 7 -6 178 -5 185 2 3 3 6 49 7
101 1 72 -2 97 -12 101 -20 8 -163 9 -175 2z"/>
<path d="M1200 2455 c0 -93 2 -105 18 -106 73 -4 264 0 270 5 4 4 7 52 7 107
l0 99 -147 0 -148 0 0 -105z"/>
<path d="M1545 2455 l0 -105 45 -1 c92 -2 242 -1 245 3 2 2 5 48 6 103 l2 100
-149 3 -149 2 0 -105z"/>
<path d="M1277 2304 c-4 -4 -21 -8 -39 -9 -18 -2 -35 -3 -38 -4 -9 -2 -2 -763
6 -771 31 -27 246 -74 274 -59 13 7 15 63 15 418 0 268 -3 412 -10 414 -5 1
-50 2 -100 2 -49 0 -93 3 -96 7 -3 5 -8 5 -12 2z"/>
<path d="M963 2286 c-4 -5 -7 -95 -8 -200 -2 -218 12 -301 66 -390 34 -56 107
-136 124 -136 7 0 10 114 10 368 l0 367 -93 0 c-52 0 -96 -4 -99 -9z"/>
<path d="M1550 2292 c-6 -2 -10 -150 -10 -417 l0 -413 23 -4 c32 -6 187 26
233 48 l39 19 3 383 c2 302 0 382 -10 384 -27 3 -268 3 -278 0z"/>
<path d="M1885 2291 c-9 -8 -5 -731 4 -731 16 0 94 89 121 137 51 93 62 159
64 381 1 112 -1 206 -4 210 -6 8 -178 11 -185 3z"/>
<path d="M1424 1305 c-67 -33 -106 -89 -106 -152 0 -88 43 -148 128 -177 84
-30 113 -47 123 -76 7 -21 6 -33 -4 -47 -19 -26 -107 -23 -161 5 l-42 21 -35
-53 c-37 -56 -37 -64 3 -83 136 -67 274 -58 356 24 54 53 66 116 38 194 -19
51 -51 78 -138 113 -97 39 -128 76 -91 106 21 18 74 19 115 3 39 -16 44 -12
80 59 15 28 17 38 7 46 -24 20 -95 39 -158 41 -52 1 -74 -3 -115 -24z"/>
<path d="M337 1301 c-8 -9 -65 -108 -127 -221 -62 -113 -119 -216 -126 -230
-21 -38 -18 -94 7 -116 19 -17 40 -19 203 -22 132 -2 187 1 204 10 13 7 37 38
54 68 77 142 181 326 189 336 12 15 50 22 72 15 19 -7 23 5 -55 -141 -130
-244 -148 -278 -148 -284 0 -3 43 -6 95 -6 82 0 98 3 115 20 11 11 20 24 20
29 0 5 20 44 45 85 25 42 45 79 45 82 0 3 9 19 21 35 11 16 17 29 12 29 -4 0
-3 4 2 8 6 4 26 36 44 72 19 36 38 67 42 70 4 3 48 5 96 4 48 -1 94 3 101 9 7
6 21 27 31 48 10 21 28 54 41 73 16 26 18 36 8 37 -74 7 -483 2 -493 -6 -7 -5
-30 -43 -51 -82 l-38 -73 -82 0 c-82 0 -134 -11 -134 -28 0 -5 -30 -62 -66
-126 l-65 -116 -45 0 c-24 0 -44 3 -44 8 0 4 25 52 55 107 30 54 55 100 55
101 0 1 25 46 56 100 30 54 56 103 57 109 1 6 -32 10 -90 11 -74 1 -95 -2
-106 -15z"/>
<path d="M1812 1013 l3 -298 164 0 164 0 1 63 c1 48 -2 62 -14 63 -8 0 -47 1
-87 1 -79 1 -85 7 -73 73 5 30 5 30 78 32 40 1 79 3 85 6 11 4 14 46 8 114 -1
8 -29 13 -88 15 l-87 3 1 28 c3 72 -5 66 90 69 l86 3 0 45 c-1 25 -1 53 -2 63
-1 15 -16 17 -166 17 l-165 0 2 -297z"/>
<path d="M2316 1298 c-4 -12 -26 -135 -41 -228 -3 -19 -12 -71 -20 -115 -8
-44 -17 -100 -20 -125 -3 -25 -10 -59 -15 -77 -4 -17 -5 -34 -2 -37 3 -3 38
-6 78 -6 84 0 79 -6 88 110 3 36 8 76 11 90 3 14 8 52 11 85 7 67 11 77 20 49
7 -22 38 -106 55 -149 7 -16 13 -32 14 -35 3 -10 17 -45 25 -65 4 -11 13 -35
20 -52 10 -26 18 -33 39 -33 14 0 31 4 37 8 6 4 33 63 60 132 27 69 51 127 55
130 3 3 9 18 13 34 8 35 16 29 21 -15 10 -76 16 -118 28 -199 l12 -85 79 -3
78 -3 -6 58 c-4 32 -13 96 -21 143 -8 47 -16 105 -19 130 -2 25 -9 72 -15 105
-5 33 -13 80 -16 105 -4 24 -9 48 -11 52 -3 5 -40 8 -82 8 l-77 0 -60 -155
c-57 -148 -61 -154 -71 -128 -27 66 -54 133 -83 203 l-30 75 -75 3 c-56 2 -77
-1 -80 -10z"/>
<path d="M2040 575 c-8 -9 -8 -15 -2 -15 12 0 26 19 19 26 -2 2 -10 -2 -17
-11z"/>
<path d="M139 524 c-1 -16 0 -39 0 -50 1 -12 -6 -29 -15 -38 -15 -15 -19 -15
-31 -3 -8 8 -14 33 -15 56 0 23 -4 44 -9 47 -12 7 -11 -68 1 -100 10 -28 49
-36 68 -13 12 14 19 113 9 123 -4 4 -7 -6 -8 -22z"/>
<path d="M180 482 c0 -40 4 -72 9 -72 15 0 19 113 4 130 -11 12 -13 3 -13 -58z"/>
<path d="M317 533 c-10 -36 -8 -123 3 -123 6 0 10 28 10 70 0 69 -4 86 -13 53z"/>
<path d="M447 543 c-4 -3 -7 -15 -7 -25 0 -10 -4 -18 -10 -18 -5 0 -10 -9 -10
-19 0 -37 -16 -30 -35 15 -10 24 -22 44 -27 44 -4 0 -8 -2 -8 -5 0 -11 53
-115 59 -115 6 0 33 64 46 108 6 22 4 27 -8 15z"/>
<path d="M488 543 c-2 -5 -4 -35 -4 -68 l1 -60 38 -3 c21 -2 37 1 37 7 0 6
-13 11 -30 11 -26 0 -30 4 -30 26 0 23 3 26 30 22 17 -3 30 -1 30 4 0 4 -13 8
-30 8 -23 0 -30 4 -30 20 0 16 7 20 38 20 27 0 33 3 22 10 -18 11 -67 13 -72
3z"/>
<path d="M593 542 c-13 -9 -15 -132 -2 -132 5 0 9 14 9 32 l0 32 29 -34 c16
-19 32 -32 36 -28 4 3 -3 16 -14 27 -24 24 -27 41 -7 41 21 0 28 31 12 49 -16
18 -46 24 -63 13z m55 -34 c3 -13 -3 -18 -22 -18 -20 0 -26 5 -26 21 0 15 5
20 22 17 13 -2 24 -11 26 -20z"/>
<path d="M703 543 c-21 -8 -15 -44 12 -65 37 -29 33 -52 -6 -44 -27 5 -30 4
-19 -9 16 -19 44 -19 59 -1 15 17 0 53 -31 74 -25 18 -12 35 21 28 25 -6 25
-6 7 9 -21 16 -24 16 -43 8z"/>
<path d="M787 543 c-4 -3 -7 -36 -7 -72 1 -48 3 -61 10 -49 8 12 11 128 4 128
0 0 -4 -3 -7 -7z"/>
<path d="M829 547 c-5 -9 -8 -97 -4 -114 7 -31 55 -31 91 0 22 19 25 28 20 54
-9 40 -26 54 -71 58 -19 2 -35 3 -36 2z m73 -34 c37 -34 13 -83 -41 -83 -18 0
-21 6 -21 50 0 45 2 50 22 50 12 0 30 -7 40 -17z"/>
<path d="M1103 543 c-9 -3 -13 -27 -13 -69 l0 -64 31 0 c41 0 68 16 79 46 20
52 -44 109 -97 87z m65 -29 c43 -30 19 -84 -37 -84 -18 0 -21 6 -21 50 0 55
15 64 58 34z"/>
<path d="M1270 539 c0 -5 6 -9 13 -9 8 0 11 -17 9 -61 -1 -39 1 -58 8 -54 5 3
10 31 10 61 0 42 3 54 16 54 8 0 13 4 10 8 -7 12 -66 13 -66 1z"/>
<path d="M1359 540 c-4 -19 -5 -107 -1 -117 5 -15 72 -18 72 -3 0 6 -13 10
-30 10 -25 0 -30 4 -30 23 0 17 6 23 27 25 38 3 42 12 5 12 -25 0 -32 4 -32
20 0 16 7 20 30 20 17 0 30 4 30 9 0 9 -69 11 -71 1z"/>
<path d="M1472 530 c-30 -28 -30 -83 0 -104 25 -18 65 -21 88 -6 21 13 5 23
-19 11 -47 -26 -95 34 -64 79 15 22 44 26 74 10 21 -12 26 -1 7 18 -18 18 -62
14 -86 -8z"/>
<path d="M1690 500 l0 -52 -43 48 -44 48 -2 -61 c-1 -37 3 -64 10 -69 8 -5 10
7 7 40 -3 25 -3 46 -1 46 6 0 21 -16 56 -58 15 -19 27 -32 28 -30 6 18 4 130
-3 134 -4 3 -8 -18 -8 -46z"/>
<path d="M1765 538 c-28 -16 -35 -28 -35 -65 0 -75 112 -87 135 -14 6 19 -2
49 -22 80 -6 9 -60 9 -78 -1z m79 -41 c15 -41 -2 -62 -49 -62 -33 0 -40 4 -46
27 -10 40 14 70 54 66 24 -2 34 -10 41 -31z"/>
<path d="M1890 481 l0 -71 36 0 c21 0 33 4 29 10 -3 6 -15 10 -26 10 -16 0
-19 7 -19 54 0 30 -4 58 -10 61 -6 4 -10 -20 -10 -64z"/>
<path d="M1992 527 c-57 -60 14 -147 88 -107 36 19 34 97 -4 122 -22 15 -63 7
-84 -15z m86 -9 c7 -7 12 -24 12 -38 0 -35 -17 -50 -56 -50 -26 0 -34 5 -42
29 -8 22 -7 34 4 50 17 23 63 28 82 9z"/>
<path d="M2150 528 c-62 -66 36 -162 100 -98 29 29 26 49 -10 48 -29 -1 -33
-18 -4 -18 24 0 16 -17 -13 -28 -56 -19 -98 28 -67 75 16 25 52 30 85 13 12
-7 19 -7 19 -1 0 15 -34 31 -64 31 -14 0 -34 -10 -46 -22z"/>
<path d="M2290 481 c0 -40 4 -70 9 -67 10 7 9 121 -2 132 -4 4 -7 -25 -7 -65z"/>
<path d="M2367 543 c-20 -5 -37 -41 -37 -78 0 -28 34 -55 70 -55 30 0 58 16
47 26 -4 4 -12 3 -18 -3 -6 -6 -24 -7 -41 -4 -42 9 -57 50 -31 80 19 23 73 29
73 9 0 -9 3 -9 12 0 6 6 9 14 7 17 -9 8 -63 14 -82 8z"/>
<path d="M2666 528 c-3 -13 -4 -43 -3 -68 3 -44 4 -45 37 -47 57 -4 76 19 72
88 -2 27 -17 36 -74 46 -22 3 -28 0 -32 -19z m80 -15 c30 -40 10 -83 -38 -83
-27 0 -28 2 -28 50 0 47 1 50 26 50 15 0 33 -8 40 -17z"/>
<path d="M2805 542 c-7 -7 -6 -97 1 -116 7 -18 64 -23 64 -6 0 6 -11 10 -24
10 -17 0 -25 7 -28 24 -4 20 -1 23 25 24 39 1 48 12 10 12 -17 0 -33 6 -36 14
-8 20 1 26 36 26 17 0 27 3 23 7 -9 9 -63 13 -71 5z"/>
<path d="M2899 549 c-4 -16 -4 -116 -1 -126 5 -15 62 -18 62 -3 0 6 -11 10
-25 10 -23 0 -25 3 -23 55 1 30 -1 57 -5 61 -4 4 -7 5 -8 3z"/>
<path d="M277 533 c-12 -20 -11 -106 1 -110 9 -4 12 12 12 56 0 58 -3 70 -13
54z"/>
<path d="M990 508 c-6 -18 -18 -45 -26 -60 -16 -30 -17 -38 -6 -38 5 0 14 11
20 25 14 30 48 26 74 -7 10 -13 18 -17 18 -11 0 17 -52 123 -61 123 -4 0 -12
-15 -19 -32z m34 -14 c9 -23 8 -24 -13 -24 -14 0 -18 5 -14 20 6 24 19 26 27
4z"/>
<path d="M2500 483 c-35 -79 -35 -80 -17 -64 10 7 17 19 17 26 0 6 10 11 23 9
12 -1 27 -3 33 -3 7 -1 15 -11 19 -23 3 -13 8 -18 11 -12 5 13 -44 124 -55
124 -3 0 -17 -26 -31 -57z m50 -5 c0 -5 -9 -8 -20 -8 -18 0 -19 3 -9 21 9 17
13 19 20 8 5 -8 9 -17 9 -21z"/>
<path d="M210 505 c1 -16 40 -58 47 -51 4 4 -5 19 -20 34 -15 14 -27 22 -27
17z"/>
<path d="M93 343 c-21 -8 -15 -44 12 -65 36 -28 33 -52 -5 -45 -23 5 -28 3
-23 -8 6 -18 44 -20 61 -3 19 19 14 36 -18 65 -27 23 -29 28 -14 36 11 6 19 5
26 -4 7 -11 8 -9 6 6 -3 20 -23 28 -45 18z"/>
<path d="M189 343 c-11 -98 0 -133 40 -133 16 0 33 5 37 12 11 18 14 132 3
121 -5 -5 -10 -31 -11 -57 0 -34 -5 -49 -18 -56 -27 -14 -41 10 -36 64 2 25
-1 49 -5 52 -5 3 -9 2 -10 -3z"/>
<path d="M319 330 c-1 -19 -1 -90 0 -110 1 -12 3 -13 10 -1 5 7 6 22 4 32 -3
10 0 19 6 19 6 0 11 -5 11 -10 0 -16 39 -55 47 -47 3 4 -3 17 -15 30 -21 22
-21 23 -2 35 25 15 26 48 2 61 -27 14 -62 9 -63 -9z m61 -20 c0 -14 -7 -20
-23 -20 -16 0 -23 6 -24 20 -1 15 4 20 23 20 17 0 24 -5 24 -20z"/>
<path d="M506 333 c-4 -8 -6 -39 -6 -69 l0 -54 39 0 c53 0 84 36 70 82 -8 30
-23 46 -44 49 -42 6 -55 4 -59 -8z m57 -12 c49 -19 41 -85 -12 -93 -27 -4 -29
-2 -33 32 -6 69 0 78 45 61z"/>
<path d="M658 339 c-9 -5 -12 -25 -10 -68 l4 -61 39 0 c25 0 38 4 34 10 -4 6
-12 10 -18 9 -29 -3 -37 3 -37 26 0 22 3 25 24 19 13 -3 27 -1 30 5 5 7 -4 11
-23 11 -17 0 -31 5 -31 10 0 6 0 13 0 18 0 7 5 9 42 11 12 0 18 4 14 8 -10 10
-51 11 -68 2z"/>
<path d="M759 309 c-7 -81 -1 -99 32 -99 16 0 29 5 29 10 0 6 -10 10 -23 10
-20 0 -22 4 -21 49 2 63 -13 88 -17 30z"/>
<path d="M927 343 c-6 -9 -10 -63 -8 -105 1 -25 5 -28 36 -28 19 0 35 5 35 10
0 6 -13 10 -30 10 -25 0 -29 3 -26 23 2 17 9 22 30 21 34 -2 34 14 -1 18 -39
4 -41 38 -2 38 16 0 29 4 29 8 0 10 -57 14 -63 5z"/>
<path d="M1032 338 c-18 -18 -14 -36 13 -60 26 -22 35 -64 13 -55 -53 22 -54
22 -39 3 9 -10 25 -16 40 -14 37 4 40 41 7 71 -29 27 -34 47 -11 47 8 0 15 -5
15 -11 0 -5 5 -7 10 -4 8 5 7 11 -1 21 -14 17 -31 18 -47 2z"/>
<path d="M1122 341 c-11 -6 -9 -9 6 -13 17 -5 20 -14 20 -49 0 -67 2 -77 11
-54 5 11 6 35 3 54 -3 26 1 38 14 48 10 7 16 13 13 14 -39 7 -56 7 -67 0z"/>
<path d="M1363 343 c-9 -3 -13 -27 -13 -69 l0 -64 38 0 c44 0 53 6 70 44 9 19
9 32 2 41 -5 6 -7 14 -4 18 14 14 -68 40 -93 30z m65 -29 c15 -11 21 -22 18
-39 -7 -38 -15 -45 -47 -45 -28 0 -29 1 -29 50 0 55 15 64 58 34z"/>
<path d="M1523 336 c-34 -25 -40 -73 -12 -102 27 -29 78 -32 102 -6 20 22 22
70 3 94 -19 26 -67 32 -93 14z m69 -18 c32 -25 27 -75 -8 -89 -53 -19 -98 44
-61 86 15 18 48 19 69 3z"/>
<path d="M1743 343 c-9 -3 -13 -27 -13 -69 l0 -64 38 0 c28 0 45 7 61 24 21
22 22 28 11 60 -6 20 -15 38 -19 40 -13 8 -65 14 -78 9z m67 -33 c11 -11 20
-26 20 -33 0 -22 -24 -45 -50 -49 -24 -3 -25 0 -28 50 -3 47 -1 52 17 52 12 0
30 -9 41 -20z"/>
<path d="M1885 336 c-6 -17 -7 -37 -6 -83 1 -42 2 -43 36 -43 19 0 35 5 35 10
0 6 -13 10 -28 10 -21 0 -28 5 -28 20 0 20 7 24 39 21 9 -1 17 3 17 8 0 6 -11
11 -25 11 -18 0 -25 5 -25 20 0 16 7 20 32 20 17 0 28 3 24 7 -12 12 -67 11
-71 -1z"/>
<path d="M2259 337 c-29 -23 -40 -53 -28 -84 13 -34 25 -43 64 -43 30 0 61 24
67 52 5 28 -13 65 -37 76 -32 15 -46 15 -66 -1z m75 -30 c31 -47 -15 -98 -65
-73 -30 14 -36 51 -13 77 23 26 60 24 78 -4z"/>
<path d="M2405 341 c-9 -15 -3 -131 6 -125 6 3 8 12 6 18 -3 7 -1 19 3 27 7
11 10 9 16 -6 10 -26 33 -49 41 -41 4 3 -4 17 -17 31 -21 22 -20 30 2 26 17
-2 27 37 14 55 -13 17 -62 28 -71 15z m49 -17 c25 -9 19 -34 -7 -34 -29 0 -37
7 -30 26 6 15 13 17 37 8z"/>
<path d="M2533 343 c-9 -3 -13 -27 -13 -69 l0 -64 41 0 c24 0 38 4 34 10 -3 6
-17 10 -31 10 -21 0 -25 4 -22 23 2 15 10 22 25 22 11 0 25 3 29 8 4 4 -7 7
-24 7 -25 0 -32 4 -32 20 0 16 7 20 31 20 17 0 28 4 24 10 -6 10 -41 12 -62 3z"/>
<path d="M2745 325 c-47 -46 -17 -115 50 -115 69 0 93 100 30 128 -38 17 -53
15 -80 -13z m69 -1 c27 -10 37 -40 25 -68 -16 -33 -44 -42 -74 -22 -55 36 -12
114 49 90z"/>
<path d="M2906 334 c-22 -21 -20 -27 14 -57 17 -15 30 -31 30 -36 0 -17 -30
-20 -46 -4 -15 15 -16 15 -12 -3 2 -14 12 -19 33 -19 43 0 48 41 10 71 -30 24
-26 49 6 39 23 -8 26 10 3 19 -21 8 -20 8 -38 -10z"/>
<path d="M1239 313 c-6 -15 -17 -43 -26 -61 -17 -36 -11 -56 7 -23 15 28 66
29 75 1 3 -11 11 -20 17 -20 5 0 8 4 6 8 -25 63 -55 122 -61 122 -4 0 -12 -12
-18 -27z m29 -43 c-2 -5 -9 -6 -16 -1 -7 4 -10 15 -6 25 6 17 8 17 16 2 5 -9
8 -21 6 -26z"/>
<path d="M2053 280 c-11 -71 -3 -90 13 -28 l11 43 12 -30 c23 -56 33 -60 52
-18 21 43 23 53 10 53 -4 0 -12 -15 -18 -32 l-9 -33 -27 53 c-15 28 -29 52
-31 52 -2 0 -8 -27 -13 -60z"/>
<path d="M2166 288 c10 -78 26 -96 20 -23 -3 33 -5 63 -6 68 0 4 -5 7 -10 7
-7 0 -8 -19 -4 -52z"/>
<path d="M2630 275 l0 -65 36 0 c23 0 33 4 28 11 -3 6 -15 9 -25 6 -17 -5 -19
1 -19 54 0 33 -4 59 -10 59 -6 0 -10 -28 -10 -65z"/>
</g>
</svg>
